<svg width="148" height="26" viewBox="0 0 148 26" fill="none" xmlns="http://www.w3.org/2000/svg">
<path d="M0 19.6639V0.546218H7.67437C9.65896 0.546218 11.1702 1.0105 12.208 1.93907C13.264 2.84944 13.792 4.02381 13.792 5.46218C13.792 6.66386 13.4643 7.62885 12.8088 8.35714C12.1716 9.06723 11.3887 9.54972 10.4601 9.80462C11.5525 10.0231 12.4538 10.5693 13.1639 11.4433C13.8739 12.299 14.229 13.3004 14.229 14.4475C14.229 15.9587 13.6828 17.2059 12.5903 18.1891C11.4979 19.1723 9.95028 19.6639 7.94748 19.6639H0ZM3.4958 8.57563H7.15546C8.13865 8.57563 8.89426 8.34804 9.42227 7.89286C9.95028 7.43767 10.2143 6.79132 10.2143 5.95378C10.2143 5.15266 9.95028 4.52451 9.42227 4.06933C8.91246 3.59594 8.13866 3.35924 7.10084 3.35924H3.4958V8.57563ZM3.4958 16.8235H7.40126C8.43908 16.8235 9.2402 16.5868 9.80462 16.1134C10.3873 15.6218 10.6786 14.9391 10.6786 14.0651C10.6786 13.173 10.3782 12.472 9.77731 11.9622C9.17647 11.4524 8.36625 11.1975 7.34664 11.1975H3.4958V16.8235Z" fill="#53BB53"/>
<path d="M22.4156 19.9916C20.7223 19.9916 19.4114 19.4636 18.4828 18.4076C17.5725 17.3515 17.1173 15.8039 17.1173 13.7647V6.11765H20.5858V13.437C20.5858 14.6022 20.8225 15.4944 21.2959 16.1134C21.7692 16.7325 22.5157 17.042 23.5353 17.042C24.5003 17.042 25.2924 16.6961 25.9114 16.0042C26.5487 15.3123 26.8673 14.3473 26.8673 13.1092V6.11765H30.3631V19.6639H27.2769L27.0038 17.3697C26.5851 18.1709 25.9751 18.8081 25.174 19.2815C24.3911 19.7549 23.4716 19.9916 22.4156 19.9916Z" fill="#53BB53"/>
<path d="M40.3669 19.9916C39.0924 19.9916 37.9545 19.6821 36.9531 19.063C35.9517 18.444 35.1596 17.5973 34.577 16.5231C33.9944 15.4489 33.7031 14.229 33.7031 12.8634C33.7031 11.4979 33.9944 10.2871 34.577 9.23109C35.1596 8.15686 35.9517 7.31933 36.9531 6.71849C37.9545 6.09944 39.0924 5.78992 40.3669 5.78992C41.3865 5.78992 42.2787 5.98109 43.0434 6.36344C43.8081 6.7458 44.4272 7.28291 44.9005 7.97479V0H48.3963V19.6639H45.2829L44.9005 17.7248C44.4636 18.3256 43.8809 18.8536 43.1526 19.3088C42.4426 19.764 41.514 19.9916 40.3669 19.9916ZM41.1043 16.9328C42.2332 16.9328 43.1526 16.5595 43.8627 15.813C44.591 15.0483 44.9552 14.0742 44.9552 12.8908C44.9552 11.7073 44.591 10.7423 43.8627 9.9958C43.1526 9.23109 42.2332 8.84874 41.1043 8.84874C39.9937 8.84874 39.0742 9.22199 38.3459 9.96849C37.6176 10.715 37.2535 11.68 37.2535 12.8634C37.2535 14.0469 37.6176 15.021 38.3459 15.7857C39.0742 16.5504 39.9937 16.9328 41.1043 16.9328Z" fill="#53BB53"/>
<path d="M57.8798 15.6218C57.2243 15.6218 56.6144 15.549 56.05 15.4034L55.0395 16.4139C55.349 16.5777 55.7677 16.7143 56.2958 16.8235C56.8238 16.9328 57.6795 17.042 58.863 17.1513C60.6655 17.3151 61.9764 17.743 62.7958 18.4349C63.6151 19.1267 64.0248 20.0826 64.0248 21.3025C64.0248 22.1036 63.8063 22.8592 63.3693 23.5693C62.9323 24.2976 62.2586 24.8803 61.3483 25.3172C60.4379 25.7724 59.2727 26 57.8525 26C55.9225 26 54.3658 25.6359 53.1823 24.9076C51.9988 24.1975 51.4071 23.1232 51.4071 21.6849C51.4071 20.465 51.9988 19.409 53.1823 18.5168C52.8182 18.3529 52.4995 18.18 52.2264 17.9979C51.9715 17.8158 51.7439 17.6246 51.5437 17.4244V16.7962L53.9197 14.2836C52.8637 13.355 52.3357 12.1625 52.3357 10.7059C52.3357 9.79552 52.5542 8.96709 52.9911 8.22059C53.4463 7.47409 54.0836 6.88235 54.9029 6.44538C55.7222 6.0084 56.7145 5.78992 57.8798 5.78992C58.6445 5.78992 59.3546 5.89916 60.0101 6.11765H65.1445V8.2479L62.8231 8.41176C63.1872 9.10364 63.3693 9.86835 63.3693 10.7059C63.3693 11.6162 63.1508 12.4447 62.7138 13.1912C62.2769 13.9377 61.6396 14.5294 60.8021 14.9664C59.9827 15.4034 59.0087 15.6218 57.8798 15.6218ZM57.8798 12.9454C58.5899 12.9454 59.1725 12.7542 59.6277 12.3718C60.1011 11.9895 60.3378 11.4433 60.3378 10.7332C60.3378 10.0231 60.1011 9.47689 59.6277 9.09454C59.1725 8.71218 58.5899 8.52101 57.8798 8.52101C57.1333 8.52101 56.5325 8.71218 56.0773 9.09454C55.6221 9.47689 55.3945 10.0231 55.3945 10.7332C55.3945 11.4433 55.6221 11.9895 56.0773 12.3718C56.5325 12.7542 57.1333 12.9454 57.8798 12.9454ZM54.6025 21.3298C54.6025 22.0035 54.912 22.5042 55.5311 22.8319C56.1683 23.1779 56.9421 23.3508 57.8525 23.3508C58.7264 23.3508 59.4365 23.1688 59.9827 22.8046C60.529 22.4587 60.8021 21.9853 60.8021 21.3845C60.8021 20.8929 60.62 20.4832 60.2558 20.1555C59.9099 19.8277 59.2089 19.6274 58.1529 19.5546C57.4064 19.5 56.7145 19.4181 56.0773 19.3088C55.5493 19.6001 55.1669 19.9188 54.9302 20.2647C54.7117 20.6106 54.6025 20.9657 54.6025 21.3298Z" fill="#53BB53"/>
<path d="M73.9305 19.9916C72.5649 19.9916 71.3541 19.7003 70.2981 19.1176C69.2421 18.535 68.4137 17.7157 67.8128 16.6597C67.212 15.6036 66.9116 14.3838 66.9116 13C66.9116 11.598 67.2029 10.3508 67.7855 9.2584C68.3863 8.16597 69.2057 7.31933 70.2435 6.71849C71.2995 6.09944 72.5376 5.78992 73.9578 5.78992C75.2869 5.78992 76.4613 6.08123 77.4809 6.66387C78.5005 7.2465 79.2925 8.04762 79.8569 9.06723C80.4396 10.0686 80.7309 11.1884 80.7309 12.4265C80.7309 12.6267 80.7218 12.8361 80.7036 13.0546C80.7036 13.2731 80.6945 13.5007 80.6763 13.7374H70.38C70.4529 14.7934 70.817 15.6218 71.4725 16.2227C72.1461 16.8235 72.9564 17.1239 73.9031 17.1239C74.6132 17.1239 75.205 16.9692 75.6784 16.6597C76.17 16.3319 76.5341 15.9132 76.7708 15.4034H80.3212C80.0663 16.2591 79.6384 17.042 79.0376 17.7521C78.455 18.444 77.7267 18.9902 76.8527 19.3908C75.997 19.7913 75.0229 19.9916 73.9305 19.9916ZM73.9578 8.63025C73.102 8.63025 72.3464 8.87605 71.691 9.36765C71.0355 9.84104 70.6167 10.5693 70.4347 11.5525H77.1805C77.1258 10.6604 76.7981 9.95028 76.1973 9.42227C75.5964 8.89426 74.8499 8.63025 73.9578 8.63025Z" fill="#53BB53"/>
<path d="M89.6551 19.6639C88.2349 19.6639 87.097 19.3179 86.2412 18.626C85.3855 17.9342 84.9576 16.7052 84.9576 14.9391V9.03991H82.6362V6.11765H84.9576L85.3673 2.48529H88.4534V6.11765H92.1131V9.03991H88.4534V14.9664C88.4534 15.6218 88.59 16.077 88.8631 16.3319C89.1544 16.5686 89.646 16.687 90.3379 16.687H92.0311V19.6639H89.6551Z" fill="#53BB53"/>
<path d="M95.494 19.6639V0.546218H102.568C104.097 0.546218 105.362 0.80112 106.364 1.31092C107.365 1.82073 108.112 2.52171 108.603 3.41387C109.095 4.30602 109.341 5.30742 109.341 6.41807C109.341 7.47409 109.104 8.44818 108.631 9.34034C108.157 10.2143 107.42 10.9244 106.418 11.4706C105.417 11.9986 104.133 12.2626 102.568 12.2626H98.9898V19.6639H95.494ZM98.9898 9.42227H102.349C103.569 9.42227 104.443 9.15826 104.971 8.63025C105.517 8.08403 105.79 7.34664 105.79 6.41807C105.79 5.47129 105.517 4.73389 104.971 4.20588C104.443 3.65966 103.569 3.38655 102.349 3.38655H98.9898V9.42227Z" fill="white"/>
<path d="M112.19 19.6639V0H115.685V19.6639H112.19Z" fill="white"/>
<path d="M124.526 19.9916C122.832 19.9916 121.521 19.4636 120.593 18.4076C119.683 17.3515 119.227 15.8039 119.227 13.7647V6.11765H122.696V13.437C122.696 14.6022 122.933 15.4944 123.406 16.1134C123.879 16.7325 124.626 17.042 125.645 17.042C126.61 17.042 127.402 16.6961 128.021 16.0042C128.659 15.3123 128.977 14.3473 128.977 13.1092V6.11765H132.473V19.6639H129.387L129.114 17.3697C128.695 18.1709 128.085 18.8081 127.284 19.2815C126.501 19.7549 125.582 19.9916 124.526 19.9916Z" fill="white"/>
<path d="M141.849 19.9916C140.647 19.9916 139.591 19.8004 138.681 19.4181C137.77 19.0175 137.042 18.4713 136.496 17.7794C135.95 17.0875 135.622 16.2864 135.513 15.3761H139.036C139.145 15.9041 139.436 16.3592 139.91 16.7416C140.401 17.1057 141.029 17.2878 141.794 17.2878C142.559 17.2878 143.114 17.1331 143.46 16.8235C143.824 16.514 144.006 16.159 144.006 15.7584C144.006 15.1758 143.751 14.7843 143.242 14.584C142.732 14.3655 142.022 14.1562 141.111 13.9559C140.529 13.8284 139.937 13.6737 139.336 13.4916C138.735 13.3095 138.18 13.0819 137.67 12.8088C137.179 12.5175 136.778 12.1534 136.469 11.7164C136.159 11.2612 136.004 10.7059 136.004 10.0504C136.004 8.84874 136.478 7.83824 137.424 7.01891C138.389 6.19958 139.737 5.78992 141.466 5.78992C143.069 5.78992 144.343 6.16317 145.29 6.90966C146.255 7.65616 146.829 8.68487 147.011 9.9958H143.706C143.506 8.9944 142.75 8.4937 141.439 8.4937C140.784 8.4937 140.274 8.62115 139.91 8.87605C139.564 9.13095 139.391 9.44958 139.391 9.83193C139.391 10.2325 139.655 10.5511 140.183 10.7878C140.711 11.0245 141.412 11.243 142.286 11.4433C143.233 11.6618 144.097 11.9076 144.88 12.1807C145.681 12.4356 146.319 12.827 146.792 13.355C147.265 13.8648 147.502 14.6022 147.502 15.5672C147.52 16.4048 147.302 17.1604 146.847 17.834C146.392 18.5077 145.736 19.0357 144.88 19.4181C144.025 19.8004 143.014 19.9916 141.849 19.9916Z" fill="white"/>
</svg>
