<svg width="200" height="200" viewBox="0 0 200 200" fill="none" xmlns="http://www.w3.org/2000/svg">
<path d="M103.114 42.7695C100.818 42.1295 98.5184 41.4975 96.1984 40.9455C88.8624 39.1975 81.2584 38.7895 73.7184 39.1815C57.7744 40.0135 50.8184 48.3415 56.3264 56.1095C61.8344 63.8775 68.7904 71.9295 61.2544 79.4255C53.7184 86.9215 25.3104 93.5775 28.2064 106.897C31.1024 120.217 56.6064 122.161 54.6064 130.765C52.6064 139.369 39.5504 141.869 45.9104 153.525C52.2704 165.181 75.7664 154.913 83.3024 161.018C90.8384 167.122 94.9024 172.117 107.362 174.061C119.822 176.005 128.814 160.741 142.162 154.913C155.51 149.085 169.122 147.142 171.73 133.541C174.338 119.941 149.41 111.062 150.57 97.1855C151.15 90.2495 155.894 84.8375 159.594 79.2935C165.842 69.9215 170.994 53.0375 157.194 47.5135C151.194 45.1135 144.306 45.7615 137.994 45.9135C131.426 46.0535 124.614 46.7895 118.066 46.0695C112.946 45.4935 108.03 44.1295 103.114 42.7695Z" fill="#D9DBE9"/>
<path opacity="0.7" d="M103.114 42.7695C100.818 42.1295 98.5184 41.4975 96.1984 40.9455C88.8624 39.1975 81.2584 38.7895 73.7184 39.1815C57.7744 40.0135 50.8184 48.3415 56.3264 56.1095C61.8344 63.8775 68.7904 71.9295 61.2544 79.4255C53.7184 86.9215 25.3104 93.5775 28.2064 106.897C31.1024 120.217 56.6064 122.161 54.6064 130.765C52.6064 139.369 39.5504 141.869 45.9104 153.525C52.2704 165.181 75.7664 154.913 83.3024 161.018C90.8384 167.122 94.9024 172.117 107.362 174.061C119.822 176.005 128.814 160.741 142.162 154.913C155.51 149.085 169.122 147.142 171.73 133.541C174.338 119.941 149.41 111.062 150.57 97.1855C151.15 90.2495 155.894 84.8375 159.594 79.2935C165.842 69.9215 170.994 53.0375 157.194 47.5135C151.194 45.1135 144.306 45.7615 137.994 45.9135C131.426 46.0535 124.614 46.7895 118.066 46.0695C112.946 45.4935 108.03 44.1295 103.114 42.7695Z" fill="white"/>
<path d="M159.994 126.153C158.198 126.159 156.476 126.875 155.206 128.145C153.936 129.415 153.22 131.137 153.214 132.933C153.214 136.677 159.994 143.733 159.994 143.733C159.994 143.733 166.774 136.661 166.774 132.933C166.769 131.137 166.053 129.415 164.783 128.145C163.512 126.875 161.791 126.159 159.994 126.153ZM159.994 135.353C159.429 135.354 158.876 135.187 158.405 134.874C157.934 134.56 157.567 134.114 157.35 133.592C157.132 133.069 157.075 132.494 157.185 131.939C157.294 131.385 157.566 130.875 157.965 130.474C158.365 130.073 158.874 129.8 159.428 129.689C159.983 129.578 160.558 129.634 161.081 129.85C161.604 130.065 162.051 130.431 162.366 130.901C162.681 131.371 162.85 131.924 162.85 132.489C162.851 132.865 162.777 133.237 162.634 133.584C162.491 133.931 162.281 134.247 162.016 134.513C161.75 134.779 161.435 134.99 161.089 135.134C160.742 135.278 160.37 135.353 159.994 135.353Z" fill="#14142B"/>
<path d="M159.994 143.949C159.967 143.95 159.941 143.945 159.916 143.935C159.891 143.924 159.869 143.909 159.85 143.889C159.57 143.597 153.014 136.713 153.014 132.933C153.014 131.082 153.75 129.307 155.059 127.998C156.368 126.689 158.143 125.953 159.994 125.953C161.845 125.953 163.621 126.689 164.93 127.998C166.239 129.307 166.974 131.082 166.974 132.933C166.974 136.713 160.418 143.597 160.138 143.889C160.12 143.909 160.097 143.924 160.073 143.934C160.048 143.945 160.021 143.95 159.994 143.949ZM159.994 126.349C158.25 126.352 156.577 127.046 155.344 128.279C154.11 129.513 153.416 131.185 153.414 132.929C153.414 136.249 159.014 142.405 159.994 143.453C160.97 142.405 166.574 136.253 166.574 132.929C166.572 131.185 165.878 129.513 164.644 128.28C163.411 127.048 161.738 126.355 159.994 126.353V126.349ZM159.994 135.549C159.389 135.55 158.797 135.372 158.294 135.036C157.79 134.7 157.397 134.223 157.165 133.664C156.932 133.105 156.871 132.49 156.988 131.896C157.106 131.303 157.396 130.757 157.824 130.329C158.251 129.9 158.796 129.608 159.389 129.489C159.983 129.37 160.598 129.43 161.158 129.661C161.717 129.892 162.195 130.283 162.532 130.786C162.869 131.289 163.049 131.88 163.05 132.485C163.051 132.888 162.973 133.286 162.82 133.658C162.667 134.03 162.442 134.368 162.158 134.653C161.874 134.938 161.537 135.164 161.166 135.319C160.795 135.473 160.396 135.553 159.994 135.553V135.549ZM159.994 129.833C159.468 129.833 158.954 129.988 158.516 130.28C158.078 130.571 157.736 130.986 157.534 131.472C157.332 131.958 157.279 132.492 157.381 133.009C157.482 133.525 157.735 133.999 158.107 134.372C158.478 134.744 158.952 134.998 159.467 135.102C159.983 135.205 160.518 135.153 161.005 134.953C161.491 134.752 161.907 134.412 162.2 133.975C162.493 133.538 162.649 133.024 162.65 132.497C162.647 131.795 162.366 131.122 161.868 130.626C161.371 130.13 160.697 129.851 159.994 129.849V129.833Z" fill="#14142B"/>
<path d="M76.0664 35.2335C72.9424 33.5855 68.7984 33.2695 64.9904 34.3935C61.1824 35.5175 57.7903 38.0735 56.0863 41.1935C55.9862 41.3727 55.942 41.5779 55.9594 41.7825C55.9769 41.9871 56.0552 42.1818 56.1843 42.3414C56.3134 42.5011 56.4874 42.6185 56.6838 42.6784C56.8803 42.7382 57.0901 42.738 57.2863 42.6775C57.4154 42.6401 57.5356 42.5774 57.64 42.4929C57.7444 42.4084 57.8309 42.3039 57.8944 42.1855C59.3584 39.5295 62.2304 37.3535 65.5784 36.3695C68.9264 35.3855 72.4504 35.6495 75.1144 37.0535C75.3557 37.1808 75.6377 37.207 75.8984 37.1264C76.1591 37.0457 76.3771 36.8648 76.5044 36.6235C76.6317 36.3822 76.6579 36.1001 76.5772 35.8394C76.4966 35.5788 76.3157 35.3608 76.0744 35.2335H76.0664Z" fill="#14142B"/>
<path d="M74.2103 38.8855C71.6526 37.8368 68.8132 37.6942 66.1633 38.4815C63.5135 39.2687 61.2125 40.9384 59.6423 43.2135C59.5258 43.3896 59.4663 43.5974 59.4721 43.8085C59.4778 44.0195 59.5484 44.2238 59.6742 44.3933C59.8001 44.5629 59.9751 44.6896 60.1755 44.7562C60.3759 44.8228 60.5919 44.826 60.7943 44.7655C61.0255 44.7047 61.2271 44.5627 61.3623 44.3655C62.6668 42.4966 64.5669 41.1256 66.7518 40.4767C68.9367 39.8278 71.2771 39.9395 73.3903 40.7935C73.5142 40.8473 73.6476 40.8762 73.7827 40.8785C73.9179 40.8808 74.0521 40.8565 74.1779 40.8069C74.3036 40.7573 74.4183 40.6835 74.5155 40.5895C74.6127 40.4956 74.6904 40.3835 74.7443 40.2595C74.7981 40.1355 74.827 40.0022 74.8293 39.867C74.8316 39.7319 74.8073 39.5976 74.7577 39.4719C74.7081 39.3462 74.6342 39.2314 74.5403 39.1343C74.4464 39.0371 74.3342 38.9593 74.2103 38.9055V38.8855Z" fill="#14142B"/>
<path d="M72.3263 42.5095C70.7029 41.8284 68.8916 41.7401 67.2096 42.26C65.5276 42.78 64.0821 43.875 63.1263 45.3535C62.9753 45.5807 62.9203 45.8585 62.9736 46.1261C63.0268 46.3937 63.1838 46.6294 63.4103 46.7815C63.6365 46.931 63.9121 46.9867 64.1786 46.9367C64.4451 46.8866 64.6817 46.7349 64.8383 46.5135C65.5287 45.427 66.5817 44.6202 67.8105 44.2365C69.0393 43.8528 70.3643 43.9169 71.5503 44.4175C71.8033 44.5199 72.0866 44.5175 72.3379 44.411C72.5892 44.3045 72.7879 44.1025 72.8903 43.8495C72.9927 43.5965 72.9904 43.3132 72.8838 43.0619C72.7773 42.8106 72.5753 42.6119 72.3223 42.5095H72.3263Z" fill="#14142B"/>
<path d="M68.3264 45.7135C67.857 45.8497 67.4385 46.1221 67.1238 46.4961C66.8092 46.8701 66.6125 47.3291 66.5585 47.8149C66.5046 48.3007 66.5959 48.7915 66.8209 49.2254C67.0459 49.6593 67.3945 50.0168 67.8226 50.2527C68.2507 50.4885 68.7392 50.5922 69.2262 50.5505C69.7132 50.5088 70.1769 50.3237 70.5587 50.0186C70.9405 49.7135 71.2233 49.302 71.3714 48.8362C71.5194 48.3703 71.526 47.8711 71.3904 47.4015C71.3002 47.0894 71.1494 46.7981 70.9466 46.5443C70.7437 46.2904 70.4928 46.0791 70.2083 45.9223C69.9237 45.7656 69.611 45.6664 69.2881 45.6306C68.9652 45.5948 68.6384 45.6229 68.3264 45.7135Z" fill="#14142B"/>
<path d="M159.826 57.5975H141.95C141.248 57.5975 140.575 57.8765 140.078 58.3731C139.581 58.8697 139.302 59.5432 139.302 60.2455V69.8015C139.302 70.5038 139.581 71.1773 140.078 71.6739C140.575 72.1705 141.248 72.4495 141.95 72.4495H142.506C141.95 73.6815 140.882 75.5575 139.166 76.6735C139.166 76.6735 142.79 76.4215 146.566 72.4495H159.818C160.521 72.4495 161.194 72.1705 161.691 71.6739C162.187 71.1773 162.466 70.5038 162.466 69.8015V60.2455C162.466 59.5446 162.188 58.8723 161.694 58.3759C161.199 57.8795 160.527 57.5996 159.826 57.5975Z" fill="#14142B"/>
<path d="M139.174 76.8735C139.132 76.874 139.091 76.8611 139.056 76.8367C139.022 76.8123 138.996 76.7775 138.982 76.7375C138.969 76.6954 138.969 76.65 138.984 76.6081C138.998 76.5663 139.026 76.5302 139.062 76.5055C140.59 75.5135 141.598 73.9135 142.198 72.6495H141.95C141.197 72.6463 140.475 72.345 139.943 71.8113C139.411 71.2777 139.111 70.5551 139.11 69.8015V60.2455C139.111 59.4922 139.411 58.7701 139.943 58.2371C140.475 57.704 141.197 57.4036 141.95 57.4015H159.818C160.192 57.4015 160.563 57.4752 160.908 57.6183C161.254 57.7614 161.568 57.9712 161.832 58.2357C162.097 58.5001 162.306 58.8141 162.45 59.1596C162.593 59.5051 162.666 59.8755 162.666 60.2495V69.8015C162.666 70.5568 162.366 71.2812 161.832 71.8153C161.298 72.3494 160.574 72.6495 159.818 72.6495H146.662C142.894 76.5735 139.338 76.8615 139.186 76.8735H139.174ZM141.95 57.8015C141.301 57.8015 140.678 58.0594 140.219 58.5185C139.76 58.9776 139.502 59.6002 139.502 60.2495V69.8015C139.502 70.4507 139.76 71.0734 140.219 71.5325C140.678 71.9916 141.301 72.2495 141.95 72.2495H142.506C142.54 72.2486 142.574 72.2566 142.604 72.2725C142.633 72.2885 142.659 72.3119 142.677 72.3405C142.695 72.3691 142.705 72.4019 142.707 72.4357C142.709 72.4696 142.702 72.5032 142.686 72.5335C142.069 73.9788 141.144 75.2717 139.974 76.3215C141.242 76.0055 143.806 75.0655 146.422 72.3215C146.44 72.3012 146.463 72.2851 146.487 72.274C146.512 72.263 146.539 72.2574 146.566 72.2575H159.818C160.468 72.2575 161.09 71.9996 161.549 71.5405C162.008 71.0814 162.266 70.4587 162.266 69.8095V60.2455C162.266 59.5962 162.008 58.9736 161.549 58.5145C161.09 58.0554 160.468 57.7975 159.818 57.7975L141.95 57.8015Z" fill="#14142B"/>
<path d="M147.818 64.6815C147.818 64.4117 147.738 64.148 147.588 63.9237C147.439 63.6994 147.226 63.5246 146.976 63.4213C146.727 63.3181 146.453 63.2911 146.188 63.3437C145.924 63.3963 145.681 63.5263 145.49 63.717C145.299 63.9078 145.169 64.1508 145.117 64.4154C145.064 64.68 145.091 64.9542 145.194 65.2035C145.297 65.4527 145.472 65.6657 145.697 65.8156C145.921 65.9655 146.185 66.0455 146.454 66.0455C146.633 66.0455 146.81 66.0103 146.975 65.942C147.14 65.8736 147.29 65.7735 147.416 65.6472C147.542 65.5209 147.642 65.371 147.711 65.206C147.779 65.0409 147.814 64.8641 147.814 64.6855L147.818 64.6815Z" fill="white"/>
<path d="M151.09 66.0455C151.844 66.0455 152.454 65.4348 152.454 64.6815C152.454 63.9282 151.844 63.3175 151.09 63.3175C150.337 63.3175 149.726 63.9282 149.726 64.6815C149.726 65.4348 150.337 66.0455 151.09 66.0455Z" fill="white"/>
<path d="M157.086 64.6815C157.086 64.4117 157.006 64.148 156.856 63.9237C156.707 63.6994 156.494 63.5246 156.244 63.4213C155.995 63.3181 155.721 63.2911 155.456 63.3437C155.192 63.3963 154.949 63.5263 154.758 63.717C154.567 63.9078 154.437 64.1508 154.384 64.4154C154.332 64.68 154.359 64.9542 154.462 65.2035C154.565 65.4527 154.74 65.6657 154.964 65.8156C155.189 65.9655 155.453 66.0455 155.722 66.0455C156.084 66.0455 156.431 65.9018 156.687 65.646C156.943 65.3902 157.086 65.0433 157.086 64.6815Z" fill="white"/>
<path d="M36.8501 116.62C40.7349 116.237 43.5743 112.778 43.192 108.894C42.8097 105.009 39.3506 102.169 35.4658 102.552C31.581 102.934 28.7417 106.393 29.1239 110.278C29.5062 114.163 32.9653 117.002 36.8501 116.62Z" fill="#14142B"/>
<path d="M36.1663 116.85C34.7288 116.85 33.3237 116.423 32.1284 115.625C30.9332 114.826 30.0017 113.691 29.4516 112.363C28.9015 111.035 28.7575 109.573 29.038 108.164C29.3184 106.754 30.0106 105.459 31.0271 104.442C32.0435 103.426 33.3385 102.734 34.7484 102.453C36.1583 102.173 37.6196 102.317 38.9477 102.867C40.2757 103.417 41.4108 104.348 42.2094 105.544C43.0081 106.739 43.4343 108.144 43.4343 109.582C43.4348 110.536 43.2472 111.481 42.8821 112.363C42.5171 113.245 41.9817 114.047 41.3067 114.722C40.6317 115.397 39.8303 115.932 38.9483 116.297C38.0663 116.662 37.1209 116.85 36.1663 116.85ZM36.1663 102.713C34.808 102.713 33.4801 103.116 32.3507 103.871C31.2212 104.626 30.3409 105.698 29.8211 106.953C29.3013 108.208 29.1653 109.589 29.4303 110.921C29.6953 112.254 30.3494 113.477 31.3099 114.438C32.2704 115.398 33.4942 116.053 34.8264 116.318C36.1587 116.583 37.5396 116.447 38.7946 115.927C40.0496 115.407 41.1222 114.527 41.8769 113.397C42.6315 112.268 43.0343 110.94 43.0343 109.582C43.0343 107.76 42.3107 106.013 41.0227 104.725C39.7347 103.437 37.9878 102.713 36.1663 102.713Z" fill="#14142B"/>
<path d="M32.9783 105.178L40.6023 109.582L32.9783 113.985V105.178Z" fill="white"/>
<path d="M32.9784 114.202C32.9429 114.203 32.908 114.193 32.8784 114.174C32.8476 114.157 32.822 114.132 32.8043 114.101C32.7867 114.071 32.7777 114.037 32.7784 114.002V105.202C32.7777 105.166 32.7867 105.132 32.8043 105.102C32.822 105.071 32.8476 105.046 32.8784 105.03C32.9088 105.012 32.9432 105.003 32.9784 105.003C33.0135 105.003 33.0479 105.012 33.0784 105.03L40.7023 109.43C40.7478 109.454 40.7817 109.496 40.7967 109.545C40.8116 109.594 40.8065 109.648 40.7824 109.694C40.7643 109.728 40.7364 109.755 40.7023 109.774L33.0784 114.174C33.0485 114.192 33.0137 114.202 32.9784 114.202ZM33.1784 105.542V113.654L40.2023 109.598L33.1784 105.542Z" fill="#14142B"/>
<path d="M53.0144 163.133C51.7742 163.157 50.5525 162.83 49.4904 162.189C44.4344 159.157 41.4544 154.653 40.1944 148.957C39.8821 147.791 39.8465 146.568 40.0904 145.385C40.2898 144.41 40.7635 143.512 41.4558 142.796C42.148 142.08 43.0301 141.577 43.9984 141.345C44.3556 141.22 44.7476 141.239 45.091 141.399C45.4345 141.558 45.7026 141.844 45.8384 142.197C46.3096 143.508 46.7102 144.844 47.0384 146.197C47.0946 146.494 47.0455 146.801 46.8994 147.066C46.7534 147.33 46.5195 147.535 46.2384 147.645C45.6469 147.946 45.0393 148.213 44.4184 148.445C44.3394 148.463 44.2646 148.495 44.1983 148.541C44.132 148.587 44.0754 148.646 44.0319 148.714C43.9884 148.782 43.9588 148.858 43.9448 148.938C43.9308 149.017 43.9327 149.099 43.9504 149.177C43.9628 149.241 43.9858 149.302 44.0184 149.357C45.1641 152.571 47.0415 155.474 49.5024 157.837C49.8704 158.193 50.1344 158.133 50.4704 157.765C50.8946 157.281 51.3648 156.839 51.8744 156.445C52.1314 156.225 52.458 156.102 52.7967 156.098C53.1354 156.095 53.4646 156.21 53.7264 156.425C54.6892 157.138 55.6107 157.904 56.4864 158.721C57.4984 159.713 57.4304 160.665 56.4144 161.653C55.5138 162.566 54.296 163.096 53.0144 163.133Z" fill="#14142B"/>
<path d="M53.0143 163.333C51.7473 163.35 50.5008 163.013 49.4143 162.361C44.4943 159.413 41.3343 154.917 40.0223 149.001C39.7001 147.805 39.6645 146.55 39.9183 145.337C40.1234 144.329 40.6116 143.4 41.3257 142.659C42.0398 141.918 42.9502 141.396 43.9503 141.153C44.3564 141.013 44.8011 141.037 45.1902 141.219C45.5792 141.401 45.882 141.728 46.0343 142.129C46.5098 143.451 46.9104 144.799 47.2343 146.165C47.3042 146.506 47.2514 146.86 47.0852 147.165C46.9191 147.471 46.6502 147.707 46.3263 147.833C45.7423 148.129 45.1263 148.405 44.4943 148.653C44.1423 148.789 44.0703 148.949 44.2023 149.309C45.3427 152.491 47.2032 155.366 49.6383 157.709C49.7206 157.805 49.8339 157.869 49.9583 157.889C50.0543 157.889 50.1703 157.809 50.3183 157.645C50.7509 157.152 51.2305 156.702 51.7503 156.301C52.0417 156.053 52.4114 155.914 52.7946 155.911C53.1779 155.907 53.5502 156.038 53.8463 156.281L54.2063 156.565C55.0467 157.192 55.8482 157.869 56.6063 158.593C56.8394 158.786 57.0306 159.024 57.1682 159.293C57.3058 159.562 57.3868 159.856 57.4063 160.157C57.3824 160.475 57.2942 160.785 57.1471 161.067C56.9999 161.35 56.7969 161.6 56.5503 161.801C55.6098 162.739 54.346 163.282 53.0183 163.317L53.0143 163.333ZM44.4903 141.477C44.3416 141.477 44.1936 141.498 44.0503 141.537C43.117 141.762 42.2669 142.247 41.5996 142.937C40.9323 143.627 40.4753 144.493 40.2823 145.433C40.0472 146.586 40.0828 147.777 40.3863 148.913C41.6743 154.717 44.7863 159.129 49.5863 162.017C50.6149 162.641 51.7998 162.959 53.0023 162.933C54.229 162.902 55.3963 162.399 56.2623 161.529C56.4693 161.362 56.6406 161.154 56.7663 160.919C56.892 160.684 56.9695 160.427 56.9943 160.161C56.9762 159.914 56.908 159.673 56.7938 159.453C56.6797 159.233 56.522 159.039 56.3303 158.881C55.5768 158.169 54.7821 157.501 53.9503 156.881L53.5903 156.597C53.3634 156.413 53.0785 156.314 52.7859 156.318C52.4933 156.322 52.2115 156.43 51.9903 156.621C51.4901 157.007 51.0292 157.441 50.6143 157.917C50.5394 158.021 50.4437 158.107 50.3335 158.171C50.2233 158.235 50.101 158.275 49.9743 158.289C49.8564 158.289 49.7401 158.263 49.6336 158.212C49.5271 158.162 49.4331 158.089 49.3583 157.997C46.8793 155.61 44.986 152.682 43.8263 149.441C43.7754 149.349 43.7433 149.248 43.7317 149.143C43.72 149.039 43.7291 148.933 43.7585 148.832C43.7879 148.731 43.8369 148.637 43.9027 148.554C43.9686 148.472 44.05 148.404 44.1423 148.353C44.2069 148.32 44.2754 148.294 44.3463 148.277C44.9663 148.033 45.5743 147.765 46.1463 147.477C46.3885 147.39 46.5918 147.219 46.7199 146.996C46.8481 146.772 46.8929 146.511 46.8463 146.257C46.5187 144.903 46.1181 143.568 45.6463 142.257C45.5589 142.023 45.4005 141.822 45.1932 141.682C44.986 141.542 44.7402 141.471 44.4903 141.477Z" fill="#14142B"/>
<path d="M60.1103 151.429C60.0263 152.065 59.9783 152.709 59.8503 153.341C59.8379 153.464 59.8013 153.583 59.7429 153.691C59.6844 153.799 59.6052 153.895 59.5097 153.973C59.4142 154.05 59.3044 154.108 59.1864 154.144C59.0685 154.179 58.9448 154.19 58.8223 154.177C58.7643 154.169 58.7068 154.157 58.6503 154.141C58.1263 154.017 57.8503 153.525 57.9703 152.877C58.3418 150.889 57.9424 148.833 56.8533 147.128C55.7642 145.423 54.067 144.197 52.1063 143.697C51.926 143.661 51.7493 143.609 51.5783 143.541C51.3688 143.461 51.1958 143.307 51.0919 143.108C50.9881 142.909 50.9605 142.679 51.0143 142.461C51.0263 142.348 51.0604 142.239 51.1148 142.139C51.1691 142.039 51.2426 141.951 51.331 141.88C51.4195 141.809 51.5211 141.755 51.6301 141.723C51.7391 141.691 51.8534 141.681 51.9663 141.693H52.0623C52.9425 141.885 53.7994 142.17 54.6183 142.545C56.2636 143.376 57.6472 144.646 58.6163 146.213C59.5855 147.781 60.1025 149.586 60.1103 151.429Z" fill="#14142B"/>
<path d="M58.9264 154.385C58.8133 154.384 58.7006 154.371 58.5904 154.345C57.9624 154.193 57.6263 153.593 57.7624 152.849C58.1252 150.91 57.7363 148.906 56.6746 147.243C55.6129 145.58 53.9581 144.384 52.0464 143.897L51.9063 143.865C51.7585 143.838 51.6147 143.793 51.4784 143.729C51.2285 143.63 51.023 143.444 50.8995 143.205C50.7761 142.966 50.743 142.691 50.8063 142.429C50.8323 142.269 50.8907 142.115 50.978 141.977C51.0654 141.84 51.1798 141.721 51.3144 141.629C51.4317 141.554 51.5636 141.505 51.7015 141.484C51.8394 141.463 51.9801 141.472 52.1144 141.509C53.0078 141.705 53.878 141.994 54.7103 142.373C56.388 143.215 57.7996 144.504 58.7882 146.1C59.7768 147.695 60.3037 149.533 60.3103 151.409V151.437C60.2863 151.633 60.2623 151.837 60.2423 152.021C60.1943 152.461 60.1424 152.917 60.0504 153.365C60.0273 153.531 59.9712 153.691 59.8853 153.834C59.7994 153.978 59.6855 154.103 59.5504 154.201C59.3661 154.325 59.1483 154.389 58.9264 154.385ZM51.8423 141.893C51.732 141.892 51.6236 141.922 51.5303 141.981C51.4425 142.043 51.3678 142.121 51.3108 142.212C51.2537 142.303 51.2155 142.404 51.1983 142.509C51.1537 142.684 51.1756 142.87 51.2599 143.029C51.3442 143.189 51.4847 143.312 51.6543 143.373C51.7631 143.421 51.8773 143.454 51.9943 143.473L52.1464 143.509C54.1534 144.025 55.8896 145.284 57.0036 147.032C58.1175 148.779 58.526 150.884 58.1464 152.921C58.0464 153.457 58.2504 153.853 58.6704 153.953C58.7744 153.985 58.8838 153.995 58.9918 153.982C59.0997 153.97 59.2041 153.936 59.2983 153.881C59.3913 153.812 59.4696 153.726 59.5287 153.626C59.5877 153.527 59.6264 153.416 59.6423 153.301C59.7303 152.873 59.7783 152.425 59.8303 151.989C59.8503 151.801 59.8703 151.589 59.8983 151.417C59.8882 149.615 59.3786 147.851 58.426 146.32C57.4734 144.79 56.1152 143.554 54.5024 142.749C53.6974 142.382 52.8552 142.101 51.9904 141.913C51.9412 141.908 51.8915 141.908 51.8423 141.913V141.893Z" fill="#14142B"/>
<path d="M56.7943 151.925C56.7623 152.165 56.7303 152.629 56.6383 153.077C56.623 153.203 56.5829 153.325 56.5205 153.435C56.458 153.545 56.3743 153.642 56.2743 153.719C56.1743 153.797 56.0599 153.854 55.9377 153.888C55.8155 153.921 55.6879 153.93 55.5623 153.913H55.5263C55.3945 153.888 55.269 153.837 55.1572 153.763C55.0454 153.688 54.9495 153.593 54.875 153.481C54.8006 153.369 54.7491 153.244 54.7235 153.112C54.698 152.98 54.6989 152.845 54.7263 152.713C54.8061 152.132 54.8182 151.542 54.7623 150.957C54.3863 148.745 53.0783 147.333 50.9143 146.717C50.2103 146.517 49.8503 146.073 49.9783 145.517C50.1063 144.961 50.6423 144.657 51.3743 144.813C54.4583 145.493 56.8023 148.465 56.7943 151.925Z" fill="#14142B"/>
<path d="M55.6983 154.121H55.4943C55.3388 154.095 55.1899 154.039 55.0563 153.955C54.9226 153.871 54.8068 153.762 54.7154 153.633C54.624 153.505 54.5589 153.36 54.5237 153.206C54.4885 153.052 54.4839 152.893 54.5103 152.737C54.5103 152.613 54.5303 152.485 54.5423 152.357C54.5983 151.917 54.5983 151.47 54.5423 151.029C54.1823 148.917 52.9423 147.541 50.8383 146.945C50.0383 146.717 49.6103 146.165 49.7623 145.509C49.9143 144.853 50.5623 144.469 51.3903 144.657C54.6383 145.365 56.9903 148.433 56.9903 151.961V151.985C56.9932 152.062 56.9838 152.139 56.9623 152.213C56.9383 152.465 56.8983 152.809 56.8303 153.149C56.7846 153.418 56.6464 153.662 56.4397 153.84C56.233 154.017 55.9707 154.117 55.6983 154.121ZM50.9623 144.973C50.7794 144.956 50.5964 145.007 50.4487 145.116C50.301 145.225 50.199 145.385 50.1623 145.565C50.0183 146.193 50.6703 146.449 50.9623 146.529C53.2223 147.169 54.5623 148.649 54.9623 150.929C55.0223 151.405 55.0223 151.886 54.9623 152.361C54.9623 152.485 54.9383 152.609 54.9303 152.733C54.9045 152.839 54.9005 152.949 54.9184 153.056C54.9363 153.163 54.9759 153.265 55.0346 153.356C55.0934 153.448 55.1701 153.526 55.2601 153.587C55.3502 153.647 55.4516 153.689 55.5583 153.709C55.6581 153.725 55.76 153.72 55.8581 153.696C55.9561 153.672 56.0485 153.629 56.1299 153.569C56.2112 153.509 56.28 153.434 56.3322 153.348C56.3845 153.261 56.4192 153.165 56.4343 153.065C56.4343 153.065 56.4343 153.045 56.4343 153.033C56.4983 152.713 56.5343 152.377 56.5623 152.133C56.5572 152.058 56.5654 151.982 56.5863 151.909C56.5863 148.577 54.3703 145.677 51.3103 145.009C51.1959 144.985 51.0792 144.973 50.9623 144.973Z" fill="#14142B"/>
<path d="M51.5063 152.258C51.5743 151.711 51.438 151.158 51.1236 150.705C50.8091 150.253 50.3386 149.932 49.8023 149.805C49.1223 149.597 48.8063 149.117 48.9663 148.541C49.1263 147.965 49.6543 147.741 50.3543 147.921C51.3602 148.191 52.2305 148.824 52.7971 149.698C53.3637 150.572 53.5864 151.625 53.4223 152.654C53.2983 153.358 52.9303 153.682 52.3263 153.618C51.7223 153.554 51.4463 153.142 51.4903 152.418C51.4943 152.366 51.5023 152.31 51.5063 152.258Z" fill="#14142B"/>
<path d="M52.4663 153.825H52.3063C51.6063 153.753 51.2383 153.241 51.2943 152.417V152.249C51.3578 151.748 51.233 151.241 50.9441 150.827C50.6551 150.412 50.2226 150.119 49.7303 150.005C48.9303 149.761 48.5703 149.181 48.7583 148.493C48.9463 147.805 49.5863 147.529 50.3903 147.733C51.4435 148.019 52.3543 148.683 52.9485 149.598C53.5426 150.513 53.7783 151.615 53.6103 152.693C53.4903 153.425 53.0823 153.825 52.4663 153.825ZM49.9143 148.061C49.7433 148.045 49.5721 148.09 49.4319 148.189C49.2916 148.289 49.1917 148.435 49.1503 148.601C49.0183 149.073 49.2743 149.445 49.8543 149.625C50.4325 149.766 50.9393 150.113 51.279 150.602C51.6187 151.09 51.7679 151.686 51.6983 152.277V152.437C51.6383 153.349 52.1783 153.405 52.3543 153.425C52.6663 153.457 53.0983 153.425 53.2343 152.625C53.3925 151.646 53.1808 150.642 52.6404 149.81C52.1 148.978 51.2695 148.376 50.3103 148.121C50.1812 148.085 50.0482 148.065 49.9143 148.061Z" fill="#14142B"/>
<path d="M45.8983 147.853C45.8572 147.853 45.8171 147.841 45.7835 147.817C45.7498 147.794 45.7243 147.76 45.7103 147.721L45.4783 147.069C45.4567 147.021 45.455 146.966 45.4738 146.917C45.4925 146.867 45.5301 146.827 45.5783 146.805C45.6021 146.794 45.628 146.788 45.6543 146.787C45.6807 146.786 45.7069 146.79 45.7316 146.799C45.7562 146.809 45.7787 146.823 45.7978 146.841C45.8168 146.859 45.8319 146.881 45.8423 146.905V146.937L46.0743 147.585C46.091 147.636 46.0874 147.691 46.0643 147.739C46.0411 147.786 46.0002 147.823 45.9503 147.841C45.9337 147.848 45.9161 147.852 45.8983 147.853Z" fill="white"/>
<path d="M45.4144 146.485C45.373 146.487 45.3323 146.474 45.2984 146.451C45.2646 146.427 45.2393 146.393 45.2264 146.353L43.6264 141.841C43.6177 141.815 43.6143 141.788 43.6165 141.76C43.6186 141.732 43.6263 141.706 43.6389 141.681C43.6516 141.656 43.669 141.635 43.6902 141.617C43.7114 141.599 43.7359 141.586 43.7624 141.577C43.7883 141.568 43.8159 141.564 43.8435 141.566C43.871 141.567 43.8979 141.575 43.9226 141.587C43.9473 141.599 43.9692 141.617 43.987 141.638C44.0049 141.659 44.0182 141.683 44.0264 141.709L45.6264 146.221C45.6444 146.271 45.6418 146.326 45.6193 146.374C45.5968 146.422 45.5562 146.459 45.5064 146.477C45.4765 146.486 45.4453 146.489 45.4144 146.485Z" fill="white"/>
<path d="M56.7184 161.429C56.67 161.43 56.6231 161.413 56.5864 161.381L52.7024 157.989C52.6824 157.972 52.6661 157.951 52.6543 157.927C52.6424 157.904 52.6354 157.878 52.6336 157.852C52.6317 157.825 52.6351 157.799 52.6434 157.774C52.6518 157.749 52.665 157.725 52.6824 157.705C52.6997 157.686 52.7208 157.669 52.7445 157.657C52.7681 157.646 52.7939 157.639 52.8202 157.637C52.8466 157.635 52.8731 157.638 52.8982 157.647C52.9232 157.655 52.9464 157.668 52.9664 157.685L56.8504 161.081C56.8856 161.118 56.9052 161.167 56.9052 161.217C56.9052 161.268 56.8856 161.317 56.8504 161.353C56.8349 161.375 56.8151 161.392 56.7924 161.405C56.7697 161.419 56.7445 161.427 56.7184 161.429Z" fill="white"/>
<path d="M52.4143 157.669C52.3659 157.67 52.319 157.653 52.2823 157.621L51.6423 157.065C51.6235 157.047 51.6087 157.025 51.5985 157C51.5884 156.976 51.5831 156.95 51.5831 156.923C51.5831 156.897 51.5884 156.871 51.5985 156.847C51.6087 156.822 51.6235 156.8 51.6423 156.782C51.6757 156.742 51.7236 156.717 51.7753 156.712C51.8271 156.708 51.8785 156.724 51.9183 156.758L52.5583 157.313C52.5952 157.352 52.6158 157.402 52.6158 157.455C52.6158 157.509 52.5952 157.559 52.5583 157.597C52.5409 157.619 52.5191 157.637 52.4942 157.649C52.4693 157.662 52.4421 157.669 52.4143 157.669Z" fill="white"/>
<path d="M82.2263 171.678H82.7983H83.0263C83.0794 171.678 83.1303 171.656 83.1678 171.619C83.2053 171.581 83.2263 171.531 83.2263 171.477C83.2263 171.424 83.2053 171.374 83.1678 171.336C83.1303 171.299 83.0794 171.277 83.0263 171.277H82.2263C82.1733 171.277 82.1224 171.299 82.0849 171.336C82.0474 171.374 82.0263 171.424 82.0263 171.477C82.0263 171.531 82.0474 171.581 82.0849 171.619C82.1224 171.656 82.1733 171.678 82.2263 171.678Z" fill="#14142B"/>
<path d="M84.0849 171.619C84.1224 171.656 84.1733 171.678 84.2263 171.678H84.2423H85.0423C85.0681 171.676 85.0934 171.67 85.1168 171.66C85.1402 171.649 85.1612 171.633 85.1786 171.614C85.1961 171.596 85.2097 171.573 85.2185 171.549C85.2274 171.525 85.2314 171.499 85.2303 171.473C85.2273 171.421 85.2046 171.372 85.1668 171.335C85.129 171.299 85.0788 171.278 85.0263 171.277H84.2263C84.1733 171.277 84.1224 171.299 84.0849 171.336C84.0474 171.374 84.0263 171.424 84.0263 171.477C84.0263 171.531 84.0474 171.581 84.0849 171.619Z" fill="#14142B"/>
<path d="M80.2263 171.658L81.0263 171.678V171.654C81.0742 171.653 81.1203 171.635 81.1562 171.604C81.1922 171.572 81.2156 171.529 81.2223 171.482C81.2229 171.455 81.2182 171.429 81.2087 171.405C81.1991 171.38 81.1848 171.358 81.1666 171.339C81.1484 171.32 81.1267 171.305 81.1026 171.294C81.0785 171.284 81.0526 171.278 81.0263 171.277L80.2263 171.257C80.1733 171.257 80.1224 171.279 80.0849 171.316C80.0474 171.354 80.0263 171.404 80.0263 171.458C80.0263 171.511 80.0474 171.561 80.0849 171.599C80.1224 171.636 80.1733 171.658 80.2263 171.658Z" fill="#14142B"/>
<path d="M86.0874 171.583C86.1246 171.62 86.1743 171.641 86.2263 171.642H86.2343L87.0343 171.609C87.0606 171.608 87.0864 171.602 87.1103 171.591C87.1342 171.58 87.1556 171.565 87.1735 171.545C87.1913 171.526 87.2052 171.503 87.2142 171.479C87.2233 171.454 87.2274 171.428 87.2263 171.401C87.2223 171.349 87.1986 171.3 87.16 171.265C87.1215 171.229 87.0708 171.209 87.0183 171.209L86.2183 171.241C86.166 171.244 86.1166 171.266 86.0807 171.304C86.0448 171.342 86.0253 171.393 86.0263 171.445C86.0284 171.498 86.0502 171.547 86.0874 171.583Z" fill="#14142B"/>
<path d="M78.2263 171.57L79.0263 171.614L79.0303 171.59C79.0808 171.592 79.1304 171.575 79.169 171.542C79.2075 171.51 79.2323 171.464 79.2383 171.413C79.2394 171.388 79.2354 171.362 79.2265 171.338C79.2177 171.314 79.2041 171.291 79.1866 171.273C79.1692 171.254 79.1482 171.238 79.1248 171.227C79.1014 171.217 79.0761 171.211 79.0503 171.209L78.2503 171.169C78.1973 171.166 78.1452 171.184 78.1054 171.22C78.0657 171.255 78.0415 171.304 78.0383 171.358C78.0352 171.411 78.0532 171.463 78.0884 171.502C78.1237 171.542 78.1733 171.566 78.2263 171.57Z" fill="#14142B"/>
<path d="M88.0849 171.491C88.1224 171.528 88.1733 171.549 88.2263 171.549H88.2583C88.5263 171.537 88.7943 171.521 89.0583 171.501C89.0841 171.499 89.1092 171.492 89.1322 171.481C89.1553 171.469 89.1757 171.453 89.1925 171.433C89.2092 171.413 89.2219 171.39 89.2297 171.366C89.2376 171.341 89.2405 171.315 89.2383 171.289C89.2342 171.237 89.2097 171.188 89.17 171.154C89.1304 171.12 89.0788 171.102 89.0263 171.105L88.2263 171.149C88.1733 171.149 88.1224 171.171 88.0849 171.208C88.0474 171.246 88.0263 171.296 88.0263 171.349C88.0263 171.403 88.0474 171.453 88.0849 171.491Z" fill="#14142B"/>
<path d="M76.2263 171.433L77.0263 171.494L77.0343 171.473C77.0832 171.477 77.1317 171.462 77.1702 171.432C77.2087 171.402 77.2345 171.358 77.2423 171.309C77.2445 171.283 77.2415 171.257 77.2334 171.232C77.2253 171.207 77.2124 171.183 77.1953 171.163C77.1782 171.143 77.1573 171.127 77.1338 171.115C77.1103 171.103 77.0846 171.096 77.0583 171.093L76.2583 171.033C76.2053 171.029 76.1527 171.046 76.1122 171.081C76.0717 171.115 76.0466 171.164 76.0423 171.217C76.0381 171.271 76.0551 171.323 76.0896 171.364C76.1241 171.404 76.1733 171.429 76.2263 171.433Z" fill="#14142B"/>
<path d="M90.0849 171.363C90.1224 171.4 90.1733 171.421 90.2263 171.421H90.2663L91.0663 171.361C91.0921 171.359 91.1172 171.351 91.14 171.339C91.1629 171.327 91.183 171.31 91.1994 171.29C91.2158 171.27 91.228 171.247 91.2354 171.222C91.2427 171.197 91.2451 171.171 91.2423 171.145C91.2403 171.119 91.2331 171.094 91.2212 171.07C91.2092 171.047 91.1927 171.026 91.1726 171.009C91.1525 170.991 91.1293 170.978 91.1042 170.97C91.0791 170.962 91.0526 170.959 91.0263 170.961L90.2263 171.021C90.1733 171.021 90.1224 171.043 90.0849 171.08C90.0474 171.118 90.0263 171.168 90.0263 171.221C90.0263 171.275 90.0474 171.325 90.0849 171.363Z" fill="#14142B"/>
<path d="M74.2503 171.237C74.5143 171.269 74.7823 171.297 75.0503 171.321H75.0743C75.1006 171.323 75.1268 171.318 75.1515 171.309C75.1762 171.3 75.1988 171.286 75.2182 171.269C75.2375 171.251 75.2531 171.229 75.2641 171.205C75.2751 171.182 75.2813 171.156 75.2823 171.129C75.284 171.103 75.2804 171.077 75.2717 171.053C75.2631 171.028 75.2496 171.005 75.2321 170.986C75.2146 170.967 75.1934 170.951 75.1697 170.94C75.1461 170.929 75.1204 170.922 75.0943 170.921L74.2943 170.837C74.2681 170.835 74.2415 170.837 74.2161 170.844C74.1908 170.852 74.1671 170.864 74.1465 170.881C74.1259 170.897 74.1087 170.917 74.096 170.941C74.0833 170.964 74.0752 170.989 74.0723 171.015C74.0695 171.042 74.0718 171.068 74.0791 171.094C74.0865 171.119 74.0988 171.143 74.1154 171.163C74.1319 171.184 74.1523 171.201 74.1755 171.214C74.1986 171.227 74.2241 171.235 74.2503 171.237Z" fill="#14142B"/>
<path d="M92.0786 171.207C92.1158 171.241 92.1643 171.259 92.2143 171.257H92.2383L93.0383 171.181C93.0641 171.179 93.0892 171.171 93.112 171.159C93.1349 171.147 93.155 171.13 93.1714 171.11C93.1878 171.09 93.2 171.067 93.2074 171.042C93.2147 171.017 93.2171 170.991 93.2143 170.965C93.2118 170.939 93.2042 170.914 93.1917 170.89C93.1793 170.867 93.1623 170.846 93.1419 170.83C93.1214 170.813 93.0979 170.8 93.0725 170.793C93.0472 170.785 93.0206 170.783 92.9943 170.785L92.1943 170.857C92.168 170.86 92.1425 170.868 92.1191 170.88C92.0958 170.893 92.0752 170.909 92.0585 170.93C92.0417 170.95 92.0292 170.974 92.0216 170.999C92.0141 171.025 92.0116 171.051 92.0143 171.077C92.0184 171.127 92.0414 171.174 92.0786 171.207Z" fill="#14142B"/>
<path d="M73.0383 171.093H73.0623L73.0543 171.073C73.1042 171.079 73.1541 171.064 73.1931 171.033C73.2321 171.001 73.257 170.955 73.2623 170.905C73.2676 170.856 73.2529 170.806 73.2214 170.767C73.1899 170.728 73.1442 170.703 73.0943 170.697L72.2943 170.589C72.242 170.583 72.189 170.596 72.1464 170.627C72.1039 170.659 72.0752 170.705 72.0663 170.757C72.0614 170.81 72.0764 170.863 72.1082 170.905C72.14 170.947 72.1864 170.976 72.2383 170.985L73.0383 171.093Z" fill="#14142B"/>
<path d="M94.0651 171.01C94.1014 171.043 94.149 171.062 94.1983 171.061H94.2263L95.0263 170.973C95.0526 170.97 95.078 170.962 95.1011 170.949C95.1241 170.936 95.1444 170.919 95.1607 170.898C95.1771 170.877 95.1892 170.853 95.1963 170.828C95.2034 170.802 95.2055 170.776 95.2023 170.749C95.1992 170.723 95.1909 170.698 95.1779 170.675C95.165 170.652 95.1476 170.631 95.1268 170.615C95.106 170.599 95.0822 170.587 95.0567 170.58C95.0312 170.572 95.0046 170.57 94.9783 170.573L94.1783 170.661C94.1259 170.668 94.078 170.694 94.045 170.735C94.0121 170.776 93.9967 170.829 94.0023 170.881C94.0064 170.931 94.0288 170.976 94.0651 171.01Z" fill="#14142B"/>
<path d="M146.93 29.5815L122.026 32.4095L128.318 37.0975L146.93 29.5815Z" fill="white"/>
<path d="M128.318 37.2975C128.276 37.2978 128.234 37.2853 128.198 37.2615L121.91 32.5695C121.878 32.5459 121.853 32.513 121.84 32.4752C121.826 32.4374 121.824 32.3964 121.834 32.3575C121.844 32.3185 121.866 32.2836 121.897 32.2578C121.928 32.2319 121.966 32.2164 122.006 32.2135L146.906 29.4135C146.955 29.4082 147.003 29.4208 147.043 29.4488C147.083 29.4767 147.111 29.5182 147.122 29.5655C147.135 29.6117 147.131 29.6611 147.109 29.704C147.088 29.747 147.051 29.7803 147.006 29.7975L128.394 37.3175C128.368 37.3149 128.342 37.3081 128.318 37.2975ZM122.554 32.5535L128.35 36.8735L145.498 29.9455L122.554 32.5535Z" fill="#14142B"/>
<path d="M128.318 37.0975L128.27 42.1815L146.93 29.5815L128.318 37.0975Z" fill="white"/>
<path d="M128.27 42.3815C128.238 42.3817 128.206 42.3734 128.178 42.3575C128.146 42.3404 128.119 42.3151 128.1 42.2842C128.081 42.2532 128.071 42.2178 128.07 42.1815L128.118 37.0975C128.119 37.058 128.13 37.0195 128.152 36.9867C128.175 36.954 128.206 36.9285 128.242 36.9135L146.854 29.4015C146.9 29.3819 146.952 29.3805 146.999 29.3976C147.045 29.4147 147.084 29.449 147.106 29.4935C147.13 29.5371 147.136 29.5878 147.124 29.6358C147.112 29.6838 147.083 29.7257 147.042 29.7535L128.382 42.3495C128.349 42.372 128.31 42.3832 128.27 42.3815ZM128.518 37.2335L128.474 41.8015L145.246 30.4775L128.518 37.2335Z" fill="#14142B"/>
<path d="M128.27 42.1815L131.19 38.0615L146.93 29.5815L128.27 42.1815Z" fill="white"/>
<path d="M128.27 42.3815C128.244 42.3818 128.218 42.3766 128.194 42.3663C128.17 42.356 128.148 42.3407 128.13 42.3215C128.098 42.288 128.078 42.2439 128.074 42.1971C128.07 42.1503 128.083 42.1037 128.11 42.0655L131.026 37.9455C131.044 37.9205 131.067 37.9 131.094 37.8855L146.834 29.4015C146.88 29.3775 146.933 29.3715 146.982 29.3849C147.032 29.3983 147.075 29.4299 147.102 29.4735C147.128 29.5182 147.136 29.5708 147.125 29.621C147.114 29.6713 147.084 29.7156 147.042 29.7455L128.382 42.3415C128.35 42.3663 128.311 42.3803 128.27 42.3815ZM131.326 38.2015L129.07 41.4015L143.498 31.6575L131.326 38.2015Z" fill="#14142B"/>
<path d="M131.19 38.0615L139.39 44.1895L146.93 29.5815L131.19 38.0615Z" fill="white"/>
<path d="M139.39 44.3895C139.347 44.3904 139.305 44.3763 139.27 44.3495L131.07 38.2215C131.043 38.2018 131.021 38.1752 131.007 38.1443C130.993 38.1134 130.987 38.0793 130.99 38.0455C130.993 38.0122 131.003 37.98 131.022 37.952C131.04 37.924 131.065 37.9011 131.094 37.8855L146.834 29.4015C146.872 29.382 146.915 29.3746 146.957 29.3804C147 29.3861 147.039 29.4046 147.07 29.4335C147.101 29.4637 147.121 29.503 147.127 29.5455C147.134 29.588 147.127 29.6315 147.106 29.6695L139.57 44.2815C139.557 44.3078 139.538 44.3308 139.514 44.3488C139.491 44.3668 139.463 44.3793 139.434 44.3855L139.39 44.3895ZM131.55 38.0895L139.314 43.8895L146.446 30.0655L131.55 38.0895Z" fill="#14142B"/>
<path d="M96.8143 88.4695C96.6385 88.4694 96.4676 88.4113 96.328 88.3043C96.1885 88.1973 96.088 88.0473 96.0423 87.8775C95.9503 87.5335 86.7463 53.3655 85.1223 42.5455C84.0623 35.4735 86.1663 31.2895 88.1183 29.0255C89.2278 27.7386 90.6065 26.7111 92.1569 26.0158C93.7072 25.3205 95.3914 24.9742 97.0903 25.0015C104.198 25.0015 107.834 31.4495 108.762 34.8575C109.562 37.8255 110.93 42.9895 110.946 43.0415C110.99 43.2437 110.955 43.455 110.846 43.6313C110.738 43.8075 110.565 43.9349 110.365 43.9866C110.165 44.0384 109.952 44.0105 109.772 43.9089C109.591 43.8072 109.458 43.6397 109.398 43.4415C109.398 43.3895 108.026 38.2415 107.218 35.2695C106.41 32.2975 103.23 26.6015 97.0903 26.6015C95.6221 26.5777 94.1664 26.8758 92.8257 27.4749C91.4851 28.0741 90.292 28.9597 89.3303 30.0695C87.5983 32.0695 85.7303 35.8375 86.7063 42.3095C88.3063 53.0415 97.5063 87.1095 97.5903 87.4615C97.6454 87.6662 97.6169 87.8845 97.5111 88.0682C97.4054 88.252 97.231 88.3862 97.0263 88.4415C96.9574 88.4609 96.886 88.4703 96.8143 88.4695Z" fill="#14142B"/>
<path d="M51.7304 126.821C48.3864 126.821 45.6664 125.665 44.2944 122.313C41.5384 115.597 50.1144 111.197 60.0424 106.097C63.2424 104.457 66.5464 102.757 69.6984 100.897C81.6544 93.7735 80.7904 89.0255 80.7784 88.9775C80.7342 88.7753 80.7702 88.564 80.8786 88.3877C80.987 88.2115 81.1595 88.0841 81.3598 88.0324C81.5602 87.9806 81.7727 88.0085 81.953 88.1101C82.1332 88.2118 82.267 88.3793 82.3264 88.5775C82.4824 89.1695 83.4704 94.5775 70.5184 102.277C67.3184 104.181 63.9904 105.877 60.7744 107.545C51.5464 112.281 43.5744 116.373 45.7744 121.729C48.2224 127.701 56.5944 124.865 64.6944 122.129C69.7104 120.433 74.4464 118.829 77.4024 119.633C80.0344 120.353 80.5744 122.177 80.8624 123.157C80.9023 123.313 80.9545 123.466 81.0184 123.613C81.1562 123.771 81.227 123.976 81.2155 124.185C81.2039 124.394 81.1111 124.59 80.9568 124.731C80.8025 124.872 80.599 124.947 80.39 124.94C80.1809 124.933 79.9829 124.845 79.8384 124.693C79.584 124.378 79.4097 124.007 79.3304 123.609C79.0744 122.741 78.7544 121.661 76.9824 121.177C74.4984 120.497 69.9864 122.029 65.2064 123.645C60.6384 125.161 55.7344 126.821 51.7304 126.821Z" fill="#14142B"/>
<path d="M135.79 111.089C135.651 111.092 135.513 111.057 135.39 110.989C135.298 110.939 135.217 110.87 135.152 110.788C135.086 110.706 135.038 110.611 135.009 110.51C134.98 110.409 134.971 110.303 134.983 110.199C134.995 110.094 135.027 109.993 135.078 109.901C139.254 102.389 146.782 100.169 153.43 98.2135C155.749 97.5774 158.032 96.8135 160.266 95.9255C162.814 94.8495 164.266 92.2095 163.574 89.9255C162.394 86.0215 155.37 82.9415 139.198 86.0055C131.95 87.3775 126.398 86.8055 122.69 84.2495C119.49 82.0615 118.934 79.2175 118.91 79.0975C118.876 78.8911 118.924 78.6796 119.044 78.5082C119.164 78.3367 119.346 78.219 119.552 78.1803C119.757 78.1416 119.97 78.185 120.144 78.3011C120.318 78.4172 120.439 78.5968 120.482 78.8015C120.558 79.1775 122.426 87.5535 138.882 84.4335C160.546 80.3295 164.422 87.2335 165.09 89.4615C166.03 92.5735 164.218 95.9895 160.874 97.4015C158.585 98.3178 156.245 99.1018 153.866 99.7495C147.202 101.713 140.318 103.749 136.462 110.681C136.395 110.802 136.298 110.902 136.18 110.974C136.062 111.045 135.928 111.085 135.79 111.089Z" fill="#14142B"/>
<path d="M110.986 48.1135C110.636 48.1129 110.296 47.9975 110.018 47.7851C109.74 47.5727 109.539 47.275 109.446 46.9375L107.81 40.9375C107.755 40.7347 107.74 40.523 107.766 40.3145C107.793 40.106 107.86 39.9047 107.964 39.7221C108.068 39.5396 108.208 39.3793 108.374 39.2505C108.54 39.1217 108.73 39.0269 108.932 38.9715C109.135 38.9161 109.347 38.9011 109.555 38.9275C109.764 38.9539 109.965 39.0211 110.148 39.1253C110.33 39.2295 110.491 39.3686 110.619 39.5348C110.748 39.7009 110.843 39.8907 110.898 40.0935L112.534 46.0935C112.59 46.2963 112.604 46.5079 112.578 46.7163C112.551 46.9248 112.484 47.1259 112.379 47.3083C112.275 47.4907 112.136 47.6507 111.969 47.7793C111.803 47.9078 111.613 48.0024 111.41 48.0575C111.272 48.096 111.13 48.1149 110.986 48.1135Z" fill="#14142B"/>
<path d="M133.634 110.018C133.634 110.018 135.542 106.745 137.45 108.109C139.358 109.473 135.27 112.197 136.906 112.741C138.542 113.285 141.81 111.942 142.906 115.469C144.002 118.997 140.722 120.645 137.454 119.829C134.186 119.013 131.454 115.741 133.634 110.018Z" fill="white"/>
<path d="M139.086 120.234C138.518 120.233 137.953 120.162 137.402 120.022C136.548 119.828 135.746 119.452 135.049 118.921C134.353 118.389 133.779 117.714 133.366 116.942C132.386 115.07 132.418 112.649 133.446 109.945V109.918C133.494 109.834 134.618 107.917 136.062 107.617C136.319 107.562 136.585 107.563 136.842 107.619C137.099 107.676 137.34 107.787 137.55 107.945C138.75 108.797 137.898 110.11 137.286 111.07C136.958 111.586 136.618 112.118 136.706 112.37C136.706 112.398 136.746 112.486 136.95 112.554C137.474 112.679 138.013 112.728 138.55 112.702C140.19 112.702 142.23 112.701 143.058 115.41C143.618 117.23 143.03 118.358 142.434 118.986C141.988 119.406 141.461 119.733 140.886 119.947C140.311 120.162 139.699 120.259 139.086 120.234ZM133.814 110.106C132.83 112.694 132.798 114.994 133.718 116.758C134.107 117.479 134.645 118.109 135.297 118.605C135.949 119.101 136.7 119.452 137.498 119.634C139.366 120.102 141.202 119.738 142.178 118.71C142.922 117.91 143.106 116.822 142.71 115.51C141.966 113.109 140.17 113.109 138.582 113.085C137.997 113.114 137.411 113.057 136.842 112.918C136.732 112.889 136.629 112.836 136.543 112.761C136.457 112.686 136.389 112.591 136.346 112.485C136.19 112.049 136.55 111.489 136.966 110.837C137.694 109.693 138.166 108.838 137.334 108.258C137.17 108.13 136.98 108.041 136.778 107.995C136.575 107.949 136.365 107.949 136.162 107.994C134.962 108.27 133.914 109.938 133.814 110.106Z" fill="#14142B"/>
<path d="M141.514 119.646C141.475 119.645 141.436 119.634 141.402 119.614C141.359 119.584 141.328 119.539 141.318 119.487C141.307 119.435 141.317 119.382 141.346 119.338C143.638 115.842 139.938 113.238 139.778 113.13C139.735 113.099 139.705 113.052 139.695 113C139.686 112.948 139.697 112.894 139.726 112.849C139.741 112.828 139.76 112.809 139.781 112.795C139.803 112.78 139.828 112.77 139.853 112.765C139.879 112.76 139.906 112.761 139.931 112.766C139.957 112.772 139.981 112.782 140.002 112.797C140.042 112.825 144.186 115.734 141.674 119.554C141.657 119.581 141.634 119.603 141.606 119.62C141.578 119.636 141.547 119.644 141.514 119.646Z" fill="#14142B"/>
<path d="M135.07 154.029L95.2184 160.249C92.5624 160.649 89.8544 158.441 89.1744 155.281L68.4784 59.2575C67.2784 54.7295 71.3544 52.3175 74.0104 51.9015L111.906 46.5655C114.562 46.1655 117.266 48.3735 117.95 51.5335L141.306 147.401C141.986 150.565 140.35 153.241 135.07 154.029Z" fill="white"/>
<path d="M94.5784 160.502C92.0544 160.502 89.6264 158.318 88.9784 155.326L68.2824 59.2975C68.0566 58.5479 67.9969 57.758 68.1074 56.9829C68.218 56.2078 68.4961 55.4662 68.9224 54.8095C70.1704 52.9055 72.4264 51.9455 73.9824 51.7055L111.878 46.3655C114.63 45.9375 117.442 48.2375 118.142 51.4935L141.498 147.358C141.678 148.032 141.714 148.737 141.602 149.427C141.49 150.116 141.234 150.774 140.85 151.358C139.826 152.838 137.894 153.798 135.098 154.218L95.2504 160.438C95.0285 160.477 94.8038 160.498 94.5784 160.502ZM112.546 46.7135C112.341 46.7136 112.137 46.7296 111.934 46.7615L74.0384 52.1015C72.5704 52.3295 70.4384 53.2335 69.2584 55.0295C68.8619 55.6406 68.6038 56.331 68.5022 57.0524C68.4006 57.7738 68.458 58.5087 68.6704 59.2055L89.3704 155.238C90.0304 158.294 92.6384 160.438 95.1864 160.038L135.038 153.802C137.722 153.402 139.566 152.494 140.518 151.11C140.872 150.57 141.108 149.962 141.21 149.325C141.312 148.688 141.278 148.036 141.11 147.414L117.754 51.5815C117.15 48.7695 114.89 46.7135 112.546 46.7135Z" fill="#14142B"/>
<path d="M137.794 152.942L97.9503 159.162C95.2943 159.562 92.5903 157.35 91.9103 154.19L71.2023 58.1655C70.5223 55.0055 72.1223 52.1095 74.7783 51.6935L114.63 45.4735C117.286 45.0735 119.994 47.2855 120.674 50.4455L141.37 146.47C142.054 149.63 140.45 152.526 137.794 152.942Z" fill="#14142B"/>
<path d="M97.3063 159.402C94.7783 159.402 92.3503 157.218 91.7063 154.226L71.0063 58.2015C70.8124 57.3874 70.7851 56.5426 70.9261 55.7177C71.067 54.8929 71.3732 54.105 71.8263 53.4015C72.1574 52.9036 72.5875 52.4793 73.0899 52.1551C73.5924 51.8309 74.1562 51.6139 74.7463 51.5175L114.598 45.2975C117.354 44.8655 120.166 47.1655 120.87 50.4215L141.55 146.422C141.751 147.239 141.783 148.088 141.645 148.918C141.508 149.747 141.203 150.541 140.75 151.25C140.418 151.747 139.987 152.171 139.484 152.495C138.981 152.82 138.417 153.037 137.826 153.134L97.9743 159.354C97.7533 159.388 97.5299 159.404 97.3063 159.402ZM115.274 45.6175C115.069 45.6176 114.865 45.6336 114.662 45.6655L74.8103 51.8855C74.2733 51.9733 73.7603 52.171 73.3032 52.4663C72.8462 52.7616 72.4551 53.148 72.1543 53.6015C71.7302 54.2643 71.4445 55.0061 71.3146 55.7822C71.1847 56.5583 71.2132 57.3527 71.3983 58.1175L92.0943 154.142C92.7543 157.194 95.3623 159.342 97.9143 158.942L137.766 152.718C138.303 152.63 138.815 152.432 139.272 152.137C139.728 151.841 140.118 151.455 140.418 151.002C140.844 150.339 141.131 149.598 141.262 148.822C141.393 148.045 141.364 147.25 141.178 146.486L120.478 50.4855C119.874 47.6855 117.614 45.6255 115.278 45.6255L115.274 45.6175Z" fill="#14142B"/>
<path d="M137.99 141.533L93.0024 148.553L74.1664 61.1575L119.15 54.1335L137.99 141.533Z" fill="#D9DBE9"/>
<path d="M93.0024 148.753C92.9574 148.754 92.9137 148.738 92.8787 148.71C92.8437 148.681 92.8196 148.642 92.8104 148.597L73.9704 61.1975C73.9596 61.1438 73.9696 61.0881 73.9984 61.0415C74.0143 61.0191 74.0345 61.0001 74.0578 60.9856C74.0812 60.9712 74.1073 60.9616 74.1344 60.9575L119.118 53.9375C119.169 53.9302 119.221 53.9421 119.263 53.971C119.305 53.9999 119.335 54.0436 119.346 54.0935L138.186 141.489C138.192 141.516 138.192 141.544 138.187 141.571C138.181 141.598 138.17 141.623 138.154 141.645C138.123 141.69 138.076 141.72 138.022 141.729L93.0344 148.753H93.0024ZM74.4064 61.3215L93.1504 148.329L137.742 141.369L118.994 54.3615L74.4064 61.3215Z" fill="#14142B"/>
<path d="M99.7384 81.2255C100.198 83.4295 99.9144 85.3375 99.1144 85.4855C98.3144 85.6335 97.2944 83.9655 96.8384 81.7615C96.3824 79.5575 96.6624 77.6495 97.4624 77.5015C98.2624 77.3535 99.2824 79.0015 99.7384 81.2255Z" fill="#14142B"/>
<path d="M109.618 79.3775C110.074 81.5815 109.794 83.4895 108.99 83.6415C108.186 83.7935 107.17 82.1215 106.714 79.9175C106.258 77.7135 106.538 75.8055 107.338 75.6575C108.138 75.5095 109.15 77.1735 109.618 79.3775Z" fill="#14142B"/>
<path d="M104.566 98.9255C99.8384 98.9255 95.1784 96.0255 92.2784 91.1175C92.1968 90.937 92.1851 90.7327 92.2455 90.5441C92.3059 90.3555 92.4341 90.196 92.6053 90.0964C92.7765 89.9969 92.9786 89.9644 93.1724 90.0052C93.3661 90.0461 93.5379 90.1573 93.6544 90.3175C96.6384 95.3655 101.618 98.0575 106.358 97.1775C110.97 96.3255 114.49 92.1775 115.318 86.6175C115.334 86.5124 115.37 86.4115 115.424 86.3203C115.479 86.2292 115.551 86.1497 115.636 86.0864C115.721 86.023 115.818 85.9771 115.921 85.9512C116.024 85.9254 116.131 85.92 116.236 85.9355C116.341 85.951 116.442 85.987 116.534 86.0416C116.625 86.0961 116.704 86.168 116.768 86.2533C116.831 86.3385 116.877 86.4354 116.903 86.5384C116.929 86.6414 116.934 86.7484 116.918 86.8535C115.986 93.1015 111.962 97.7695 106.666 98.7535C105.973 98.8748 105.27 98.9324 104.566 98.9255Z" fill="#14142B"/>
<path d="M85.208 93.5061L83.1591 97.6959L83.5184 97.8716L85.5673 93.6818L85.208 93.5061Z" fill="white"/>
<path d="M102.391 58.3954L87.0535 89.7581L87.4128 89.9338L102.75 58.5712L102.391 58.3954Z" fill="white"/>
<path d="M97.5998 58.6794L91.1813 70.9727L91.5359 71.1578L97.9544 58.8646L97.5998 58.6794Z" fill="white"/>
<path d="M127.715 128.28L120.595 142.362L120.952 142.543L128.072 128.46L127.715 128.28Z" fill="white"/>
<path d="M131.015 121.772L128.803 126.149L129.16 126.329L131.372 121.953L131.015 121.772Z" fill="white"/>
<path d="M102.01 52.6775L89.5824 54.6015C89.3181 54.6161 89.0579 54.5308 88.8534 54.3627C88.6489 54.1945 88.5151 53.9557 88.4784 53.6935C88.4386 53.5787 88.4219 53.4572 88.4291 53.336C88.4364 53.2147 88.4674 53.0961 88.5206 52.9869C88.5737 52.8777 88.6478 52.78 88.7388 52.6994C88.8297 52.6189 88.9356 52.5571 89.0504 52.5175L89.1304 52.4935L101.55 50.6015C101.815 50.5869 102.075 50.6721 102.279 50.8403C102.484 51.0085 102.618 51.2473 102.654 51.5095C102.727 51.7434 102.704 51.9966 102.59 52.2133C102.476 52.4301 102.28 52.5927 102.046 52.6655L102.01 52.6775Z" fill="white"/>
<path d="M89.4663 54.8255C89.2372 54.7994 89.0184 54.7158 88.8302 54.5825C88.642 54.4492 88.4906 54.2704 88.39 54.0629C88.2894 53.8553 88.2429 53.6257 88.2549 53.3954C88.2668 53.1651 88.3368 52.9415 88.4583 52.7455C88.5314 52.6381 88.626 52.547 88.7362 52.4781C88.8464 52.4093 88.9697 52.3641 89.0983 52.3455L101.55 50.3895C101.864 50.3697 102.175 50.4678 102.42 50.6646C102.666 50.8613 102.829 51.1427 102.878 51.4535C102.919 51.6244 102.925 51.8019 102.896 51.9751C102.866 52.1484 102.802 52.3138 102.706 52.4615C102.632 52.5691 102.537 52.6601 102.426 52.729C102.315 52.7978 102.191 52.843 102.062 52.8615L89.6303 54.8015C89.5764 54.8137 89.5215 54.8217 89.4663 54.8255ZM101.682 50.7815H101.594L89.1503 52.7255C88.9977 52.754 88.8625 52.8417 88.7743 52.9695C88.709 53.0724 88.6654 53.1876 88.6462 53.308C88.6269 53.4283 88.6324 53.5513 88.6623 53.6695C88.6907 53.8805 88.7957 54.0736 88.9572 54.2123C89.1187 54.3509 89.3255 54.4254 89.5383 54.4215L101.97 52.4815C102.046 52.4679 102.118 52.4389 102.182 52.3962C102.246 52.3536 102.301 52.2982 102.342 52.2335C102.474 52.0134 102.514 51.7498 102.451 51.5007C102.389 51.2517 102.23 51.0376 102.01 50.9055C101.905 50.8442 101.79 50.8022 101.67 50.7815H101.682Z" fill="#14142B"/>
<path d="M117.95 148.718C117.722 147.666 116.822 146.922 115.95 147.062C115.078 147.202 114.534 148.166 114.75 149.218C114.966 150.27 115.878 151.013 116.75 150.874C117.622 150.734 118.174 149.77 117.95 148.718Z" fill="white"/>
<path d="M116.542 151.089C115.638 151.089 114.77 150.317 114.542 149.261C114.473 148.971 114.464 148.669 114.515 148.375C114.566 148.081 114.676 147.8 114.838 147.55C114.958 147.368 115.115 147.213 115.298 147.095C115.481 146.977 115.687 146.899 115.902 146.866C116.89 146.71 117.902 147.522 118.142 148.678C118.212 148.967 118.222 149.268 118.172 149.562C118.122 149.855 118.012 150.135 117.85 150.385C117.729 150.567 117.571 150.722 117.388 150.84C117.204 150.958 116.998 151.038 116.782 151.073C116.703 151.085 116.623 151.09 116.542 151.089ZM116.142 147.246H115.95C115.789 147.272 115.635 147.332 115.497 147.421C115.359 147.51 115.242 147.625 115.15 147.762C115.02 147.968 114.932 148.199 114.892 148.44C114.852 148.681 114.861 148.928 114.918 149.166C115.122 150.113 115.926 150.789 116.706 150.665C116.868 150.64 117.023 150.581 117.161 150.492C117.299 150.403 117.416 150.287 117.506 150.149C117.639 149.945 117.728 149.714 117.768 149.474C117.808 149.233 117.798 148.986 117.738 148.749C117.675 148.357 117.484 147.997 117.194 147.725C116.905 147.453 116.534 147.285 116.138 147.246H116.142Z" fill="#14142B"/>
<path d="M112.598 116.894L94.2304 120.058C93.0304 120.266 92.2304 121.257 92.4224 122.265L94.7904 133.67L94.8544 133.966L96.0904 139.925L99.5504 135.054L115.798 132.254C116.998 132.046 117.798 131.053 117.602 130.049L115.15 118.345C114.954 117.337 113.806 116.686 112.598 116.894Z" fill="white"/>
<path d="M95.9864 140.418L92.2264 122.306C92.1768 122.061 92.1778 121.809 92.2294 121.564C92.281 121.32 92.3821 121.089 92.5264 120.885C92.7222 120.612 92.9707 120.381 93.2571 120.205C93.5435 120.029 93.8622 119.913 94.1944 119.862L112.566 116.697C113.874 116.473 115.13 117.193 115.366 118.297L117.794 130.002C117.844 130.245 117.843 130.496 117.792 130.74C117.741 130.983 117.641 131.214 117.498 131.418C117.302 131.691 117.053 131.923 116.766 132.1C116.479 132.276 116.159 132.394 115.826 132.445L99.6624 135.226L95.9864 140.418ZM113.05 117.058C112.916 117.057 112.782 117.069 112.65 117.094L94.2784 120.258C93.9985 120.299 93.7298 120.396 93.488 120.543C93.2462 120.69 93.0362 120.884 92.8704 121.114C92.7578 121.272 92.6787 121.453 92.6382 121.643C92.5976 121.834 92.5963 122.03 92.6344 122.221L96.2104 139.421L99.4424 134.858L115.77 132.058C116.325 131.966 116.822 131.658 117.15 131.202C117.263 131.042 117.343 130.861 117.384 130.67C117.425 130.479 117.428 130.281 117.39 130.09L114.958 118.39C114.806 117.602 113.986 117.058 113.05 117.058Z" fill="#14142B"/>
<path d="M111.282 123.746C111.294 123.587 111.282 123.428 111.246 123.274V123.186C110.934 121.674 109.214 120.706 107.41 121.014C105.99 121.258 104.942 122.214 104.71 123.362C104.313 122.844 103.779 122.448 103.167 122.221C102.556 121.993 101.893 121.942 101.254 122.074C99.4503 122.386 98.2423 123.862 98.5543 125.37C98.5543 125.37 98.5063 126.662 101.57 128.538C104.086 130.082 106.21 131.337 106.25 131.285C106.302 131.313 107.83 129.446 109.626 127.154C110.327 126.332 110.859 125.381 111.19 124.354C111.233 124.215 111.263 124.073 111.278 123.93C111.275 123.868 111.277 123.807 111.282 123.746Z" fill="#D9DBE9"/>
<path d="M106.218 131.481C106.191 131.48 106.165 131.471 106.142 131.457C105.77 131.333 104.738 130.737 101.446 128.717C98.5344 126.929 98.3464 125.617 98.3344 125.401C98.2675 125.051 98.2716 124.692 98.3465 124.343C98.4214 123.995 98.5656 123.665 98.7704 123.373C99.0577 122.977 99.4204 122.642 99.8378 122.387C100.255 122.131 100.719 121.961 101.202 121.885C101.813 121.769 102.443 121.805 103.036 121.989C103.63 122.173 104.169 122.5 104.606 122.941C104.842 122.381 105.219 121.892 105.701 121.521C106.183 121.15 106.752 120.91 107.354 120.825C109.262 120.497 111.086 121.541 111.422 123.153V123.217C111.463 123.397 111.478 123.582 111.466 123.765C111.469 123.829 111.462 123.892 111.446 123.953C111.43 124.109 111.399 124.263 111.354 124.413C111.012 125.463 110.469 126.436 109.754 127.277C107.422 130.261 106.662 131.169 106.362 131.409C106.349 131.429 106.331 131.444 106.31 131.454C106.289 131.463 106.266 131.468 106.242 131.465L106.218 131.481ZM101.914 122.201C101.701 122.2 101.488 122.219 101.278 122.257C100.847 122.321 100.433 122.47 100.06 122.697C99.6878 122.924 99.3648 123.223 99.1104 123.577C98.9348 123.827 98.8114 124.109 98.7474 124.408C98.6835 124.706 98.6804 125.014 98.7384 125.313V125.361C98.7384 125.361 98.7744 126.581 101.658 128.353C103.97 129.769 105.762 130.821 106.194 131.041C106.522 130.689 107.814 129.105 109.45 127.013C110.133 126.211 110.654 125.283 110.982 124.281C111.021 124.151 111.048 124.017 111.062 123.881V123.717C111.073 123.584 111.064 123.449 111.034 123.317C111.03 123.296 111.03 123.275 111.034 123.253C110.738 121.817 109.122 120.913 107.434 121.209C106.138 121.429 105.118 122.309 104.898 123.397C104.893 123.423 104.883 123.447 104.868 123.469C104.853 123.491 104.834 123.509 104.812 123.523C104.79 123.537 104.766 123.547 104.74 123.552C104.714 123.556 104.688 123.555 104.662 123.549C104.637 123.545 104.613 123.536 104.592 123.522C104.571 123.508 104.553 123.491 104.538 123.469C104.234 123.064 103.837 122.736 103.381 122.516C102.924 122.295 102.421 122.187 101.914 122.201Z" fill="#14142B"/>
<path d="M82.9464 124.49C82.9464 124.49 81.7944 120.889 79.6384 121.797C77.4824 122.705 80.8744 126.262 79.1624 126.438C77.4504 126.614 74.5504 124.574 72.7144 127.794C70.8784 131.014 73.7184 133.322 77.0864 133.238C80.4544 133.154 83.8304 130.55 82.9464 124.49Z" fill="white"/>
<path d="M76.9063 133.438C74.9063 133.438 73.1503 132.638 72.3743 131.322C71.9303 130.582 71.5983 129.35 72.5423 127.698C73.9343 125.25 75.9303 125.698 77.5303 126.034C78.0515 126.177 78.5899 126.247 79.1303 126.242C79.3423 126.218 79.3903 126.138 79.4063 126.114C79.5503 125.886 79.3343 125.314 79.1263 124.718C78.7263 123.65 78.2023 122.186 79.5463 121.614C79.7857 121.505 80.0455 121.449 80.3083 121.449C80.5712 121.449 80.831 121.505 81.0703 121.614C82.4103 122.23 83.0943 124.338 83.1263 124.414V124.446C83.5463 127.31 83.0463 129.678 81.6863 131.294C81.1147 131.958 80.4072 132.491 79.6115 132.859C78.8158 133.226 77.9506 133.418 77.0743 133.422L76.9063 133.438ZM75.6423 126.162C74.6423 126.162 73.6663 126.53 72.8903 127.894C72.2183 129.07 72.1583 130.186 72.7143 131.118C73.4423 132.318 75.1543 133.086 77.0823 133.038C77.9025 133.033 78.712 132.852 79.4561 132.507C80.2001 132.162 80.8611 131.661 81.3943 131.038C82.6783 129.518 83.1463 127.266 82.7503 124.526C82.6863 124.338 82.0423 122.486 80.9143 121.97C80.7263 121.882 80.5215 121.837 80.3143 121.837C80.1071 121.837 79.9024 121.882 79.7143 121.97C78.7903 122.37 79.0503 123.294 79.5143 124.57C79.7783 125.294 80.0063 125.922 79.7583 126.314C79.6931 126.407 79.6071 126.483 79.5072 126.538C79.4072 126.592 79.296 126.622 79.1823 126.626C78.5963 126.641 78.0113 126.57 77.4463 126.414C76.8556 126.266 76.2509 126.181 75.6423 126.162Z" fill="#14142B"/>
<path d="M75.3984 127.901C75.2824 128.333 74.9984 128.629 74.7424 128.561C74.4864 128.493 74.3864 128.093 74.5064 127.661C74.6264 127.23 74.9064 126.93 75.1624 126.998C75.4184 127.066 75.5144 127.47 75.3984 127.901Z" fill="#14142B"/>
<path d="M73.7943 128.602C73.6783 129.034 73.3943 129.33 73.1383 129.266C72.8823 129.202 72.7823 128.794 72.8983 128.362C73.0143 127.929 73.2983 127.633 73.5583 127.701C73.8183 127.769 73.9103 128.158 73.7943 128.602Z" fill="#14142B"/>
<path d="M74.7984 130.358C74.6824 130.79 74.3984 131.09 74.1424 131.022C73.8864 130.954 73.7904 130.55 73.9064 130.118C74.0224 129.686 74.3064 129.39 74.5624 129.458C74.8184 129.526 74.9144 129.926 74.7984 130.358Z" fill="#14142B"/>
<path d="M74.9663 132.822C74.9267 132.822 74.888 132.81 74.8551 132.788C74.8223 132.766 74.7969 132.734 74.7823 132.698C74.7719 132.674 74.7663 132.649 74.7659 132.623C74.7655 132.597 74.7703 132.571 74.78 132.547C74.7897 132.524 74.8041 132.502 74.8224 132.484C74.8407 132.465 74.8624 132.451 74.8863 132.442C75.2202 132.302 75.5274 132.106 75.7943 131.862C75.8341 131.83 75.8846 131.814 75.9354 131.818C75.9862 131.822 76.0336 131.845 76.0678 131.883C76.1021 131.921 76.1206 131.97 76.1195 132.021C76.1185 132.072 76.0981 132.121 76.0623 132.158C75.762 132.434 75.4154 132.656 75.0383 132.814C75.0149 132.82 74.9906 132.822 74.9663 132.822Z" fill="#14142B"/>
<path d="M76.4263 131.661C76.3829 131.662 76.3405 131.648 76.3063 131.621C76.2853 131.606 76.2676 131.586 76.2542 131.563C76.2408 131.541 76.232 131.516 76.2283 131.49C76.2246 131.464 76.2261 131.437 76.2326 131.412C76.2391 131.386 76.2506 131.363 76.2663 131.341C76.5723 130.935 76.8039 130.477 76.9503 129.989C77.1222 129.49 77.1896 128.961 77.1483 128.435C77.107 127.908 76.9579 127.396 76.7103 126.929C76.6839 126.883 76.6766 126.828 76.6901 126.777C76.7035 126.725 76.7366 126.681 76.7823 126.653C76.829 126.629 76.8832 126.623 76.9342 126.636C76.9853 126.649 77.0295 126.681 77.0583 126.725C77.3315 127.241 77.4969 127.806 77.5443 128.387C77.5918 128.968 77.5203 129.553 77.3343 130.105C77.1747 130.638 76.9214 131.138 76.5863 131.582C76.5673 131.606 76.543 131.626 76.5154 131.64C76.4877 131.653 76.4573 131.661 76.4263 131.661Z" fill="#14142B"/>
</svg>
